<svg width="165" height="54" viewBox="0 0 165 54" fill="none" xmlns="http://www.w3.org/2000/svg">
<g clip-path="url(#clip0_2012_282)">
<path d="M32.1011 23.9556L30.6517 24.3421L29.6211 20.4771C29.3377 19.4143 28.2362 18.7765 27.1733 19.06L23.3084 20.0906L22.9219 18.6412C22.5664 17.3078 21.1956 16.5142 19.8622 16.8698C18.5288 17.2253 17.7352 18.5961 18.0907 19.9295L18.4772 21.3788L14.6123 22.4095C13.5494 22.6929 12.9213 23.7918 13.2048 24.8547L14.1838 28.5264L15.6235 28.1425C17.0632 27.7586 18.5441 28.6159 18.928 30.0556C19.3119 31.4953 18.4546 32.9762 17.0149 33.3601L15.5655 33.7466L16.5446 37.4183C16.828 38.4812 17.9295 39.1189 18.9924 38.8355L22.6641 37.8564L22.2776 36.4071C21.8937 34.9674 22.7511 33.4864 24.1908 33.1025C25.6305 32.7186 27.1114 33.576 27.4953 35.0157L27.8818 36.4651L31.5535 35.486C32.6163 35.2026 33.254 34.1011 32.9706 33.0382L31.94 29.1733L33.3894 28.7868C34.7228 28.4312 35.5164 27.0605 35.1608 25.7271C34.8053 24.3936 33.4345 23.6 32.1011 23.9556Z" fill="url(#paint0_linear_2012_282)"/>
</g>
<path d="M46.7685 23.0909V25.0795H40.4972V23.0909H46.7685ZM42.0455 20.4773H44.6165V30.7188C44.6165 31.0644 44.6686 31.3295 44.7727 31.5142C44.8816 31.6941 45.0237 31.8172 45.1989 31.8835C45.3741 31.9498 45.5682 31.983 45.7812 31.983C45.9422 31.983 46.089 31.9711 46.2216 31.9474C46.3589 31.9238 46.4631 31.9025 46.5341 31.8835L46.9673 33.8935C46.83 33.9408 46.6335 33.9929 46.3778 34.0497C46.1269 34.1065 45.8191 34.1397 45.4545 34.1491C44.8106 34.1681 44.2306 34.071 43.7145 33.858C43.1984 33.6402 42.7888 33.304 42.4858 32.8494C42.1875 32.3949 42.0407 31.8267 42.0455 31.1449V20.4773ZM53.631 34.2131C52.5373 34.2131 51.5927 33.9858 50.7972 33.5312C50.0065 33.072 49.3981 32.4233 48.9719 31.5852C48.5458 30.7424 48.3327 29.7505 48.3327 28.6094C48.3327 27.4872 48.5458 26.5024 48.9719 25.6548C49.4028 24.8026 50.0041 24.1397 50.7759 23.6662C51.5477 23.188 52.4544 22.9489 53.4961 22.9489C54.1684 22.9489 54.8029 23.0578 55.3995 23.2756C56.0008 23.4886 56.5311 23.8201 56.9904 24.2699C57.4544 24.7197 57.819 25.2926 58.0842 25.9886C58.3493 26.6799 58.4819 27.5038 58.4819 28.4602V29.2486H49.5401V27.5156H56.0174C56.0127 27.0232 55.9061 26.5852 55.6978 26.2017C55.4895 25.8134 55.1983 25.508 54.8242 25.2855C54.4549 25.063 54.024 24.9517 53.5316 24.9517C53.006 24.9517 52.5444 25.0795 52.1467 25.3352C51.7489 25.5862 51.4388 25.9176 51.2163 26.3295C50.9985 26.7367 50.8872 27.1842 50.8825 27.6719V29.1847C50.8825 29.8191 50.9985 30.3636 51.2305 30.8182C51.4625 31.268 51.7868 31.6136 52.2035 31.8551C52.6201 32.0919 53.1078 32.2102 53.6665 32.2102C54.0406 32.2102 54.3791 32.1581 54.6822 32.054C54.9852 31.9451 55.248 31.7865 55.4705 31.5781C55.6931 31.3698 55.8612 31.1117 55.9748 30.804L58.3754 31.0739C58.2238 31.7083 57.935 32.2623 57.5089 32.7358C57.0875 33.2045 56.5477 33.5691 55.8896 33.8295C55.2314 34.0852 54.4786 34.2131 53.631 34.2131ZM63.7962 34.2202C63.1049 34.2202 62.4822 34.0971 61.9283 33.8509C61.379 33.5999 60.9434 33.2306 60.6214 32.7429C60.3042 32.2552 60.1456 31.6539 60.1456 30.9389C60.1456 30.3234 60.2592 29.8144 60.4865 29.4119C60.7138 29.0095 61.0239 28.6875 61.4169 28.446C61.8099 28.2045 62.2526 28.0223 62.745 27.8991C63.2422 27.7713 63.7559 27.679 64.2862 27.6222C64.9254 27.5559 65.4439 27.4967 65.8416 27.4446C66.2393 27.3878 66.5282 27.3026 66.7081 27.1889C66.8928 27.0705 66.9851 26.8883 66.9851 26.642V26.5994C66.9851 26.0644 66.8265 25.6501 66.5092 25.3565C66.192 25.063 65.7351 24.9162 65.1385 24.9162C64.5088 24.9162 64.0092 25.0535 63.6399 25.3281C63.2753 25.6027 63.0291 25.9271 62.9013 26.3011L60.5007 25.9602C60.6901 25.2973 61.0026 24.7434 61.4382 24.2983C61.8738 23.8485 62.4065 23.5123 63.0362 23.2898C63.666 23.0625 64.362 22.9489 65.1243 22.9489C65.6499 22.9489 66.1731 23.0104 66.6939 23.1335C67.2147 23.2566 67.6906 23.4602 68.1214 23.7443C68.5523 24.0237 68.898 24.4048 69.1584 24.8878C69.4235 25.3707 69.5561 25.9744 69.5561 26.6989V34H67.0845V32.5014H66.9993C66.843 32.8045 66.6229 33.0885 66.3388 33.3537C66.0594 33.6141 65.7067 33.8248 65.2805 33.9858C64.8591 34.142 64.3643 34.2202 63.7962 34.2202ZM64.4638 32.331C64.9799 32.331 65.4273 32.2292 65.8061 32.0256C66.1849 31.8172 66.4761 31.5426 66.6797 31.2017C66.888 30.8608 66.9922 30.4891 66.9922 30.0866V28.8011C66.9117 28.8674 66.7744 28.929 66.5803 28.9858C66.3909 29.0426 66.1778 29.0923 65.9411 29.1349C65.7043 29.1776 65.4699 29.2154 65.2379 29.2486C65.0059 29.2817 64.8047 29.3101 64.6342 29.3338C64.2507 29.3859 63.9074 29.4711 63.6044 29.5895C63.3014 29.7079 63.0623 29.8736 62.8871 30.0866C62.7119 30.295 62.6243 30.5649 62.6243 30.8963C62.6243 31.3698 62.7971 31.7273 63.1428 31.9688C63.4884 32.2102 63.9287 32.331 64.4638 32.331ZM72.1413 34V23.0909H74.5987V24.9446H74.7266C74.9538 24.3196 75.3303 23.8319 75.8558 23.4815C76.3814 23.1264 77.0088 22.9489 77.7379 22.9489C78.4766 22.9489 79.0992 23.1288 79.6058 23.4886C80.1172 23.8437 80.477 24.3291 80.6854 24.9446H80.799C81.0405 24.3385 81.4477 23.8556 82.0206 23.4957C82.5982 23.1312 83.2824 22.9489 84.0732 22.9489C85.0769 22.9489 85.8961 23.2661 86.5305 23.9006C87.165 24.535 87.4822 25.4607 87.4822 26.6776V34H84.9041V27.0753C84.9041 26.3982 84.7242 25.9034 84.3643 25.5909C84.0045 25.2737 83.5642 25.1151 83.0433 25.1151C82.4231 25.1151 81.9377 25.3092 81.5874 25.6974C81.2417 26.081 81.0689 26.5805 81.0689 27.196V34H78.5476V26.9688C78.5476 26.4053 78.3771 25.9555 78.0362 25.6193C77.7 25.2831 77.2597 25.1151 76.7152 25.1151C76.3459 25.1151 76.0097 25.2098 75.7067 25.3991C75.4036 25.5838 75.1622 25.8466 74.9822 26.1875C74.8023 26.5237 74.7124 26.9167 74.7124 27.3665V34H72.1413ZM90.0906 38.0909V23.0909H92.619V24.8949H92.7681C92.9007 24.6297 93.0877 24.348 93.3292 24.0497C93.5707 23.7467 93.8974 23.4886 94.3093 23.2756C94.7212 23.0578 95.2468 22.9489 95.886 22.9489C96.7288 22.9489 97.4888 23.1643 98.1658 23.5952C98.8477 24.0213 99.3874 24.6534 99.7852 25.4915C100.188 26.3248 100.389 27.3475 100.389 28.5597C100.389 29.7576 100.192 30.7756 99.7994 31.6136C99.4064 32.4517 98.8713 33.0909 98.1942 33.5312C97.5172 33.9716 96.7501 34.1918 95.8931 34.1918C95.2681 34.1918 94.7496 34.0876 94.3377 33.8793C93.9258 33.6709 93.5943 33.42 93.3434 33.1264C93.0972 32.8281 92.9054 32.5464 92.7681 32.2812H92.6616V38.0909H90.0906ZM92.6119 28.5455C92.6119 29.2509 92.7113 29.8688 92.9102 30.3991C93.1138 30.9295 93.4049 31.3437 93.7837 31.642C94.1673 31.9356 94.6313 32.0824 95.1758 32.0824C95.744 32.0824 96.2198 31.9309 96.6033 31.6278C96.9869 31.3201 97.2757 30.901 97.4698 30.3707C97.6687 29.8357 97.7681 29.2273 97.7681 28.5455C97.7681 27.8684 97.671 27.267 97.4769 26.7415C97.2828 26.2159 96.994 25.804 96.6104 25.5057C96.2269 25.2074 95.7487 25.0582 95.1758 25.0582C94.6265 25.0582 94.1602 25.2027 93.7766 25.4915C93.3931 25.7803 93.1019 26.1851 92.9031 26.706C92.7089 27.2268 92.6119 27.84 92.6119 28.5455ZM109.544 29.4119V23.0909H112.115V34H109.622V32.0611H109.508C109.262 32.6719 108.857 33.1714 108.294 33.5597C107.735 33.9479 107.046 34.142 106.227 34.142C105.512 34.142 104.88 33.9834 104.331 33.6662C103.786 33.3442 103.36 32.8778 103.052 32.267C102.744 31.6515 102.591 30.9081 102.591 30.0369V23.0909H105.162V29.6392C105.162 30.3305 105.351 30.8797 105.73 31.2869C106.109 31.6941 106.606 31.8977 107.221 31.8977C107.6 31.8977 107.967 31.8054 108.322 31.6207C108.677 31.4361 108.968 31.1615 109.196 30.7969C109.428 30.4276 109.544 29.9659 109.544 29.4119ZM114.616 34V32.3665L120.241 25.3139V25.2216H114.801V23.0909H123.388V24.8452L118.033 31.777V31.8693H123.572V34H114.616ZM125.847 34V32.3665L131.472 25.3139V25.2216H126.032V23.0909H134.618V24.8452L129.263 31.777V31.8693H134.803V34H125.847ZM139.79 19.4545V34H137.219V19.4545H139.79ZM147.264 34.2131C146.17 34.2131 145.225 33.9858 144.43 33.5312C143.639 33.072 143.031 32.4233 142.605 31.5852C142.179 30.7424 141.966 29.7505 141.966 28.6094C141.966 27.4872 142.179 26.5024 142.605 25.6548C143.036 24.8026 143.637 24.1397 144.409 23.6662C145.181 23.188 146.087 22.9489 147.129 22.9489C147.801 22.9489 148.436 23.0578 149.032 23.2756C149.634 23.4886 150.164 23.8201 150.623 24.2699C151.087 24.7197 151.452 25.2926 151.717 25.9886C151.982 26.6799 152.115 27.5038 152.115 28.4602V29.2486H143.173V27.5156H149.65C149.645 27.0232 149.539 26.5852 149.331 26.2017C149.122 25.8134 148.831 25.508 148.457 25.2855C148.088 25.063 147.657 24.9517 147.164 24.9517C146.639 24.9517 146.177 25.0795 145.779 25.3352C145.382 25.5862 145.072 25.9176 144.849 26.3295C144.631 26.7367 144.52 27.1842 144.515 27.6719V29.1847C144.515 29.8191 144.631 30.3636 144.863 30.8182C145.095 31.268 145.42 31.6136 145.836 31.8551C146.253 32.0919 146.741 32.2102 147.299 32.2102C147.673 32.2102 148.012 32.1581 148.315 32.054C148.618 31.9451 148.881 31.7865 149.103 31.5781C149.326 31.3698 149.494 31.1117 149.608 30.804L152.008 31.0739C151.857 31.7083 151.568 32.2623 151.142 32.7358C150.72 33.2045 150.181 33.5691 149.522 33.8295C148.864 34.0852 148.111 34.2131 147.264 34.2131Z" fill="#374151"/>
<defs>
<linearGradient id="paint0_linear_2012_282" x1="21.7947" y1="16.3545" x2="27.2054" y2="36.6454" gradientUnits="userSpaceOnUse">
<stop stop-color="#AE9AFF"/>
<stop offset="1" stop-color="#5D3AE9"/>
</linearGradient>
<clipPath id="clip0_2012_282">
<rect width="24" height="24" fill="white" transform="translate(12 15)"/>
</clipPath>
</defs>
</svg>
